<svg width="24" height="24" fill="none" xmlns="http://www.w3.org/2000/svg"><g clip-path="url(#clip48_389)"><path d="M21.65 2.24a1 1 0 00-.8-.23l-13 2A1 1 0 007 5v10.35a3.451 3.451 0 00-3.444.24A3.5 3.5 0 109 18.5v-7.64l11-1.69v4.18a3.451 3.451 0 00-3.445.24A3.5 3.5 0 1022 16.5V3a1 1 0 00-.35-.76zM5.5 20a1.5 1.5 0 110-3 1.5 1.5 0 010 3zm13-2a1.5 1.5 0 110-3 1.5 1.5 0 010 3zM20 7.14L9 8.83v-3l11-1.66v2.97z" fill="#3E3E3E"/></g><defs><clipPath id="clip48_389"><path fill="#fff" d="M0 0h24v24H0z"/></clipPath></defs></svg>