<svg width="24" height="24" fill="none" xmlns="http://www.w3.org/2000/svg"><mask id="a" maskUnits="userSpaceOnUse" x="0" y="0" width="24" height="24" fill="#000"><path fill="#fff" d="M0 0h24v24H0z"/><path d="M12 2C6.48 2 2 6.48 2 12s4.48 10 10 10 10-4.48 10-10S17.52 2 12 2zm-2 13.5v-7a.5.5 0 01.8-.4l4.67 3.5c.27.2.27.6 0 .8l-4.67 3.5a.5.5 0 01-.8-.4z"/></mask><path d="M12 2C6.48 2 2 6.48 2 12s4.48 10 10 10 10-4.48 10-10S17.52 2 12 2zm-2 13.5v-7a.5.5 0 01.8-.4l4.67 3.5c.27.2.27.6 0 .8l-4.67 3.5a.5.5 0 01-.8-.4z" fill="#333"/><path d="M10.8 8.1L9.592 9.694l.009.006L10.8 8.1zm4.67 3.5l-1.2 1.6.01.007 1.19-1.607zm0 .8l-1.19-1.607-.01.007 1.2 1.6zm-4.67 3.5l-1.2-1.6-.008.006L10.8 15.9zM12 0C5.375 0 0 5.375 0 12h4c0-4.415 3.585-8 8-8V0zM0 12c0 6.625 5.375 12 12 12v-4c-4.415 0-8-3.585-8-8H0zm12 12c6.625 0 12-5.375 12-12h-4c0 4.415-3.585 8-8 8v4zm12-12c0-6.625-5.375-12-12-12v4c4.415 0 8 3.585 8 8h4zm-12 3.5v-7H8v7h4zm0-7c0 1.21-1.394 1.962-2.408 1.194l2.416-3.188C10.334 5.238 8 6.47 8 8.5h4zM9.6 9.7l4.67 3.5 2.4-3.2L12 6.5 9.6 9.7zm4.68 3.507c-.81-.6-.81-1.815 0-2.414l2.38 3.214c1.35-1 1.35-3.015 0-4.014l-2.38 3.214zm-.01-2.407L9.6 14.3l2.4 3.2 4.67-3.5-2.4-3.2zm-4.678 3.506C10.606 13.538 12 14.29 12 15.5H8c0 2.03 2.334 3.262 4.008 1.994l-2.416-3.188z" fill="#fff" mask="url(#a)"/></svg>